#tb 0: 1/25
0,          9,          9,        1,   622080, 0xb3b66c5c
0,         10,         10,        1,   622080, 0x26a29152
0,         11,         11,        1,   622080, 0x787adddc
0,         12,         12,        1,   622080, 0xcc52df08
0,         13,         13,        1,   622080, 0x53dad126
0,         14,         14,        1,   622080, 0xe1448652
0,         15,         15,        1,   622080, 0x159fd353
0,         16,         16,        1,   622080, 0xcbe893a0
0,         17,         17,        1,   622080, 0x43a67c6b
0,         18,         18,        1,   622080, 0xef30caf9
0,         19,         19,        1,   622080, 0xa9cea62b
0,         20,         20,        1,   622080, 0x4c4cada1
0,         21,         21,        1,   622080, 0x8e91f6de
0,         22,         22,        1,   622080, 0xb03ef044
0,         23,         23,        1,   622080, 0x6b54262b
0,         24,         24,        1,   622080, 0x911e0cea
0,         25,         25,        1,   622080, 0x8320632c
0,         26,         26,        1,   622080, 0x2bde42b2
0,         27,         27,        1,   622080, 0xe9d988c3
0,         28,         28,        1,   622080, 0xa9f0b1db
0,         29,         29,        1,   622080, 0xb5bcf186
0,         30,         30,        1,   622080, 0x469c6717
0,         31,         31,        1,   622080, 0x2ca883e6
0,         32,         32,        1,   622080, 0x4f5fba72
0,         33,         33,        1,   622080, 0xa2e423ca
0,         34,         34,        1,   622080, 0xc1fb0aaf
0,         35,         35,        1,   622080, 0x96a879b8
0,         36,         36,        1,   622080, 0x212e92e6
0,         37,         37,        1,   622080, 0x9f26378a
0,         38,         38,        1,   622080, 0xdeaf77ab
